<svg width="26" height="29" viewBox="0 0 26 29" fill="none" xmlns="http://www.w3.org/2000/svg">
<path d="M10.1249 13.1237C10.8498 13.1237 11.4374 13.7113 11.4374 14.4362C11.4374 15.0772 12.0222 15.7487 12.9374 15.7487C13.8526 15.7487 14.4374 15.0772 14.4374 14.4362C14.4374 13.7113 15.025 13.1237 15.7499 13.1237C16.4748 13.1237 17.0623 13.7113 17.0623 14.4362C17.0623 16.6946 15.1288 18.3737 12.9373 18.3737C10.7458 18.3737 8.81231 16.6947 8.81231 14.4362C8.81231 13.7113 9.40003 13.1237 10.1249 13.1237ZM12.9374 0C9.10603 0 6.00141 3.10463 6.00141 6.936V8.22872C5.10735 8.37562 4.25612 8.67054 3.50016 9.29805C2.63966 10.0124 2.17995 10.929 1.87052 11.92C1.58409 12.8375 1.37621 13.9885 1.13811 15.3112C1.13188 15.3457 1.12605 15.3789 1.11979 15.4137L0.691332 17.8051C0.683532 17.8484 0.673444 17.8902 0.665697 17.9333C0.333672 19.7763 0.0515967 21.3476 0.00652167 22.6134C-0.0415721 23.9638 0.161805 25.2938 1.10516 26.4111C2.04273 27.5213 3.30735 27.9442 4.63916 28.1323C5.89682 28.3098 7.50303 28.3117 9.39622 28.3117H16.4787C18.3718 28.3117 19.978 28.3098 21.2357 28.1323C22.5675 27.9442 23.832 27.5213 24.7697 26.4111C25.713 25.2938 25.9164 23.9638 25.8684 22.6134C25.8232 21.3476 25.5411 19.7764 25.2092 17.9333L24.7368 15.3113C24.4987 13.9886 24.2909 12.8376 24.0044 11.9201C23.695 10.929 23.2354 10.0123 22.3747 9.29814C21.6189 8.67061 20.7675 8.37571 19.8735 8.2288V6.93609C19.8735 3.10471 16.7688 0 12.9374 0ZM12.9374 2.622C15.3192 2.622 17.2514 4.55419 17.2514 6.936V8.07126C16.8516 8.0673 16.464 8.06025 16.0246 8.06027H9.85022C9.41085 8.06025 9.02325 8.0673 8.62341 8.07126V6.936C8.62341 4.55438 10.5556 2.622 12.9374 2.622ZM9.95278 10.686H15.922C17.392 10.686 18.4105 10.6887 19.1922 10.7849C19.9486 10.878 20.377 11.0469 20.701 11.3159C21.0263 11.5859 21.2727 11.974 21.4993 12.7002C21.733 13.4484 21.9113 14.4449 22.1695 15.8788L22.6016 18.2702C22.9583 20.2506 23.2083 21.6462 23.2462 22.7087C23.2831 23.7486 23.1076 24.3072 22.7628 24.7155C22.4198 25.1218 21.9024 25.3902 20.8694 25.5358C19.8106 25.6853 18.3839 25.686 16.354 25.686H9.52059C7.49072 25.686 6.06778 25.6853 5.00897 25.5358C3.97592 25.3901 3.45497 25.1218 3.11203 24.7155C2.76718 24.3071 2.59161 23.7486 2.62864 22.7087C2.66648 21.6461 2.91651 20.2506 3.27317 18.2702L3.7053 15.8788C3.96354 14.4449 4.14188 13.4483 4.37546 12.7001C4.60215 11.974 4.85224 11.5859 5.17746 11.3159C5.50148 11.0469 5.92622 10.8779 6.68258 10.7849C7.46419 10.6887 8.48297 10.686 9.95278 10.686Z" fill="white"/>
</svg>
