<svg width="19" height="22" viewBox="0 0 19 22" fill="none" xmlns="http://www.w3.org/2000/svg">
<path d="M9.46683 9.46666C8.30429 9.46666 7.18938 9.00484 6.36734 8.18281C5.54531 7.36078 5.0835 6.24586 5.0835 5.08333C5.0835 3.9208 5.54531 2.80588 6.36734 1.98384C7.18938 1.16181 8.30429 0.699997 9.46683 0.699997C10.6294 0.699997 11.7443 1.16181 12.5663 1.98384C13.3883 2.80588 13.8502 3.9208 13.8502 5.08333C13.8502 6.24586 13.3883 7.36078 12.5663 8.18281C11.7443 9.00484 10.6294 9.46666 9.46683 9.46666Z" stroke="black" stroke-width="1.4" stroke-linecap="round"/>
<path d="M0.700195 20.425V19.3292C0.700195 17.5854 1.39292 15.913 2.62597 14.6799C3.85902 13.4469 5.53139 12.7542 7.27519 12.7542H11.6585C13.4023 12.7542 15.0747 13.4469 16.3077 14.6799C17.5408 15.913 18.2335 17.5854 18.2335 19.3292V20.425" stroke="black" stroke-width="1.4" stroke-linecap="round"/>
</svg>
