<svg width="25" height="26" viewBox="0 0 25 26" fill="none" xmlns="http://www.w3.org/2000/svg">
<path d="M7.65994 17.967C7.96994 17.967 8.26694 17.834 8.48594 17.599C8.70594 17.363 8.82794 17.044 8.82794 16.711C8.82794 16.378 8.70494 16.059 8.48594 15.823C8.38081 15.7082 8.25309 15.6163 8.11077 15.5531C7.96846 15.49 7.81463 15.4569 7.65894 15.456C7.34894 15.456 7.05194 15.588 6.83294 15.823C6.61294 16.059 6.49094 16.378 6.49094 16.711C6.49094 17.044 6.61394 17.363 6.83294 17.599C7.05294 17.834 7.34894 17.967 7.65994 17.967ZM6.48994 10.433L4.96294 12.526H8.43994V10.433M17.0109 17.967C17.3209 17.967 17.6179 17.834 17.8379 17.599C18.0569 17.363 18.1799 17.044 18.1799 16.711C18.1799 16.378 18.0569 16.059 17.8379 15.823C17.7328 15.7082 17.6051 15.6163 17.4628 15.5531C17.3205 15.49 17.1666 15.4569 17.0109 15.456C16.7009 15.456 16.4039 15.588 16.1849 15.823C15.9649 16.059 15.8419 16.378 15.8419 16.711C15.8419 17.044 15.9649 17.363 16.1849 17.599C16.4039 17.834 16.7009 17.967 17.0109 17.967ZM6.10094 9.17702H8.43994V5.83002H19.3489C20.2139 5.83002 20.9069 6.57502 20.9069 7.50502V16.712H19.3489C19.3489 17.378 19.1029 18.017 18.6639 18.488C18.4539 18.7178 18.1987 18.9017 17.9142 19.0282C17.6298 19.1547 17.3222 19.221 17.0109 19.223C16.3909 19.223 15.7969 18.959 15.3579 18.488C14.9144 18.0033 14.6702 17.369 14.6739 16.712H9.99594C9.99594 17.378 9.74994 18.017 9.31094 18.488C9.10104 18.7177 8.84596 18.9015 8.56168 19.028C8.27741 19.1545 7.97007 19.2209 7.65894 19.223C7.03894 19.223 6.44394 18.959 6.00594 18.488C5.56209 18.0034 5.31746 17.3692 5.32094 16.712H3.76294V12.527L6.10094 9.17902V9.17702Z" fill="white"/>
</svg>
