<svg width="20" height="21" viewBox="0 0 20 21" fill="none" xmlns="http://www.w3.org/2000/svg">
<path d="M0.548356 10.6283C-0.209046 11.038 -0.177624 11.6379 0.616437 11.9619L2.96916 12.9216C3.76387 13.2468 4.96642 13.0693 5.64003 12.5274L15.8568 4.22111C16.5284 3.67649 16.6004 3.7568 16.0171 4.40063L7.94038 13.313C7.35515 13.9548 7.52797 14.743 8.3253 15.0609L8.6009 15.1716C9.39823 15.4894 10.6977 16.0233 11.4898 16.3553L14.0991 17.4506C14.8918 17.7826 15.7389 17.3912 15.9641 16.5409L19.941 1.47101C20.1655 0.620673 19.7295 0.259617 18.9721 0.668589L0.548356 10.6283Z" fill="white"/>
<path d="M7.00488 20.4944C6.9584 20.6381 8.61395 18.023 8.61395 18.023C9.082 17.286 8.81623 16.4067 8.02544 16.0733L6.21998 15.3114C5.4292 14.978 5.05017 15.3694 5.37748 16.184C5.37748 16.184 7.05267 20.3466 7.00488 20.4944Z" fill="white"/>
</svg>
